<?xml version="1.0" encoding="UTF-8" standalone="no"?>
<svg
   xmlns:dc="http://purl.org/dc/elements/1.1/"
   xmlns:cc="http://creativecommons.org/ns#"
   xmlns:rdf="http://www.w3.org/1999/02/22-rdf-syntax-ns#"
   xmlns:svg="http://www.w3.org/2000/svg"
   xmlns="http://www.w3.org/2000/svg"
   xmlns:sodipodi="http://sodipodi.sourceforge.net/DTD/sodipodi-0.dtd"
   xmlns:inkscape="http://www.inkscape.org/namespaces/inkscape"
   enable-background="new 0 0 50 50"
   id="Layer_1"
   version="1.1"
   viewBox="0 0 50 50"
   xml:space="preserve"
   inkscape:version="0.91 r13725"
   sodipodi:docname="youtube.svg"><metadata
     id="metadata14"><rdf:RDF><cc:Work
         rdf:about=""><dc:format>image/svg+xml</dc:format><dc:type
           rdf:resource="http://purl.org/dc/dcmitype/StillImage" /></cc:Work></rdf:RDF></metadata><defs
     id="defs12" /><sodipodi:namedview
     pagecolor="#ffffff"
     bordercolor="#666666"
     borderopacity="1"
     objecttolerance="10"
     gridtolerance="10"
     guidetolerance="10"
     inkscape:pageopacity="0"
     inkscape:pageshadow="2"
     inkscape:window-width="1366"
     inkscape:window-height="705"
     id="namedview10"
     showgrid="false"
     inkscape:zoom="4.72"
     inkscape:cx="-1.1652542"
     inkscape:cy="25"
     inkscape:window-x="-8"
     inkscape:window-y="-8"
     inkscape:window-maximized="1"
     inkscape:current-layer="Layer_1" /><path
     d="m 45.83334,-5.0000006e-8 -41.666674,0 C 1.875,-5.0000006e-8 0,1.8749998 0,4.1666658 L 0,45.83334 C 0,48.125 1.875,50 4.166666,50 L 45.83334,50 C 48.125,50 50,48.125 50,45.83334 L 50,4.1666658 C 50,1.8749998 48.125,-5.0000006e-8 45.83334,-5.0000006e-8 Z"
     id="path3"
     inkscape:connector-curvature="0"
     style="fill:#cf3427" /><g
     id="_x5B____x3E___x5D__1_"><g
       id="g6"><path
         d="M39.7,19c0,0-0.3-2.1-1.2-3c-1.1-1.2-2.4-1.2-3-1.3C31.3,14.5,25,14.5,25,14.5s-6.3,0-10.5,0.3    c-0.6,0.1-1.9,0.1-3,1.3c-0.9,0.9-1.2,3-1.2,3s-0.3,2-0.3,4.4v3c0,2.4,0.3,4.5,0.3,4.5s0.3,2.1,1.2,3c1.1,1.2,2.6,1.2,3.3,1.3    c2.4,0.2,10.2,0.2,10.2,0.2s6.3,0.1,10.5-0.2c0.6-0.1,1.9-0.1,3-1.3c0.9-0.9,1.2-3,1.2-3s0.3-2.1,0.3-4.5v-3    C40,21.1,39.7,19,39.7,19z M21,29v-8l8,4L21,29z"
         fill="#FFFFFF"
         id="path8" /></g></g></svg>